# xmcd
#
# Track frame offsets: 
#        150
#        26689
#        42460
#        57586
#        80894
#        97449
#        121266
#        143749
#        165441
#        183026
#        203841
#        231029
#        252707
#        280804
#        298038
#
# Disc length: 4143 seconds
#
# Revision: 2
# Processed by: cddbd v1.5.2PL0 Copyright (c) Steve Scherf et al.
# Submitted via: ExactAudioCopyFreeDBPlugin 1.0
#
DISCID=e4102d0f
DTITLE=Craig Armstrong - As If to Nothing
DYEAR=2002
DGENRE=Electronic
TTITLE0=Ruthless Gravity
TTITLE1=Wake Up in New York
TTITLE2=Miracle
TTITLE3=Amber
TTITLE4=Finding Beauty
TTITLE5=Waltz
TTITLE6=Inhaler
TTITLE7=Hymn 2
TTITLE8=Snow
TTITLE9=Starless II
TTITLE10=Stay (Faraway, So Close!)
TTITLE11=Niente
TTITLE12=Sea Song
TTITLE13=Let It Be Love
TTITLE14=Choral Ending
EXTD=
EXTT0=
EXTT1=
EXTT2=
EXTT3=
EXTT4=
EXTT5=
EXTT6=
EXTT7=
EXTT8=
EXTT9=
EXTT10=
EXTT11=
EXTT12=
EXTT13=
EXTT14=
PLAYORDER=
